<?xml version="1.0" standalone="no"?><!DOCTYPE svg PUBLIC "-//W3C//DTD SVG 1.1//EN" "http://www.w3.org/Graphics/SVG/1.1/DTD/svg11.dtd"><svg height="500" node-id="1" sillyvg="true" template-height="500" template-width="500" version="1.1" viewBox="0 0 500 500" width="500" xmlns="http://www.w3.org/2000/svg" xmlns:xlink="http://www.w3.org/1999/xlink"><defs node-id="96"><linearGradient gradientUnits="userSpaceOnUse" id="未命名的渐变_115" node-id="5" spreadMethod="pad" x1="-1203619.9" x2="-1203290.9" y1="-25307.875" y2="-25307.107"><stop offset="0" stop-color="#ffed88"></stop><stop offset="1" stop-color="#ffb474"></stop></linearGradient><linearGradient gradientUnits="userSpaceOnUse" id="未命名的渐变_115-2" node-id="8" spreadMethod="pad" x1="-2521.12" x2="-2214.65" y1="-2303.47" y2="-2206.95"><stop offset="0" stop-color="#ffed88"></stop><stop offset="1" stop-color="#ffb474"></stop></linearGradient><linearGradient gradientUnits="userSpaceOnUse" id="未命名的渐变_116" node-id="9" spreadMethod="pad" x1="-1594403.5" x2="-1594102.1" y1="-80306.91" y2="-80263.61"><stop offset="0" stop-color="#c3e8ff"></stop><stop offset="1" stop-color="#5cb3fc"></stop></linearGradient><linearGradient gradientTransform="matrix(25.02 3.39 3.39 45.88 96884.88 22280.87)" gradientUnits="userSpaceOnUse" id="未命名的渐变_117" node-id="12" spreadMethod="pad" x1="-3835.7" x2="-3836.04" y1="-198.15" y2="-198.99"><stop offset="0" stop-color="#fb8460"></stop><stop offset="1" stop-color="#ffc4a7"></stop></linearGradient><linearGradient gradientTransform="matrix(26.14 1.72 1.72 36.75 100821.4 14429.8)" gradientUnits="userSpaceOnUse" id="未命名的渐变_118" node-id="15" spreadMethod="pad" x1="-3834.75" x2="-3834.51" y1="-208.95" y2="-208.54"><stop offset="0" stop-color="#cb7f00"></stop><stop offset="1" stop-color="#9c4800"></stop></linearGradient><linearGradient gradientTransform="matrix(14.01 0.44 0.44 26.64 52164.45 11021.77)" gradientUnits="userSpaceOnUse" id="未命名的渐变_122" node-id="18" spreadMethod="pad" x1="-3704" x2="-3703.95" y1="-338.91" y2="-337.91"><stop offset="0" stop-color="#6b3c5d"></stop><stop offset="1" stop-color="#261637"></stop></linearGradient><linearGradient gradientTransform="matrix(117.4 -1.6 -1.6 71.6 423088.44 16379.99)" gradientUnits="userSpaceOnUse" id="未命名的渐变_131" node-id="21" spreadMethod="pad" x1="-3606.07" x2="-3606.4" y1="-304.58" y2="-304.86"><stop offset="0" stop-color="#fb8460"></stop><stop offset="1" stop-color="#fed0ba"></stop></linearGradient><linearGradient gradientTransform="matrix(53.96 0.56 0.56 69.97 195838.69 23637.91)" gradientUnits="userSpaceOnUse" id="未命名的渐变_129" node-id="24" spreadMethod="pad" x1="-3622.06" x2="-3621.46" y1="-305.25" y2="-304.47"><stop offset="0" stop-color="#fffbe6"></stop><stop offset="1" stop-color="#c0d5e7"></stop></linearGradient><linearGradient gradientTransform="matrix(12.81 2.17 2.17 26.17 50544.29 14570.26)" gradientUnits="userSpaceOnUse" id="未命名的渐变_122-2" node-id="27" spreadMethod="pad" x1="-3892.05" x2="-3892" y1="-218.99" y2="-217.99"><stop offset="0" stop-color="#6b3c5d"></stop><stop offset="1" stop-color="#261637"></stop></linearGradient><linearGradient gradientTransform="matrix(79.11 3.29 3.29 99.37 301139.25 31206.84)" gradientUnits="userSpaceOnUse" id="未命名的渐变_131-2" node-id="28" spreadMethod="pad" x1="-3795.82" x2="-3796.03" y1="-184.15" y2="-184.91"><stop offset="0" stop-color="#fb8460"></stop><stop offset="1" stop-color="#fed0ba"></stop></linearGradient><linearGradient gradientTransform="matrix(119.56 -6.11 -6.11 81.98 452364.5 -7450.9)" gradientUnits="userSpaceOnUse" id="未命名的渐变_131-3" node-id="29" spreadMethod="pad" x1="-3790.47" x2="-3790.8" y1="-189.39" y2="-189.73"><stop offset="0" stop-color="#fb8460"></stop><stop offset="1" stop-color="#fed0ba"></stop></linearGradient><linearGradient gradientTransform="matrix(22.73 -0.75 -0.75 18.11 87637.89 1816.89)" gradientUnits="userSpaceOnUse" id="未命名的渐变_125" node-id="30" spreadMethod="pad" x1="-3849.31" x2="-3849.03" y1="-256.89" y2="-256.45"><stop offset="0" stop-color="#fef6e7"></stop><stop offset="1" stop-color="#c5ced2"></stop></linearGradient><linearGradient gradientTransform="matrix(3.77 0.47 0.47 6.68 16244.89 4493.95)" gradientUnits="userSpaceOnUse" id="未命名的渐变_133" node-id="33" spreadMethod="pad" x1="-4171.77" x2="-4170.73" y1="-368.89" y2="-368.89"><stop offset="0" stop-color="#9cbaf4"></stop><stop offset="1" stop-color="#456de3"></stop></linearGradient><linearGradient gradientTransform="matrix(6.05 0.12 0.12 6.81 24781.54 3197.13)" gradientUnits="userSpaceOnUse" id="未命名的渐变_133-2" node-id="36" spreadMethod="pad" x1="-4034.28" x2="-4033.24" y1="-387.93" y2="-387.93"><stop offset="0" stop-color="#9cbaf4"></stop><stop offset="1" stop-color="#456de3"></stop></linearGradient><linearGradient gradientTransform="matrix(35.97 -1.48 -1.48 26.83 137420.56 649.66)" gradientUnits="userSpaceOnUse" id="未命名的渐变_135" node-id="37" spreadMethod="pad" x1="-3823.07" x2="-3823.07" y1="-228.34" y2="-229.59"><stop offset="0" stop-color="#a634c9"></stop><stop offset="1" stop-color="#f35f83"></stop></linearGradient><linearGradient gradientTransform="matrix(38.14 5.42 5.42 71.52 146799.5 34442.47)" gradientUnits="userSpaceOnUse" id="未命名的渐变_129-2" node-id="40" spreadMethod="pad" x1="-3815.73" x2="-3815.38" y1="-188.98" y2="-188.03"><stop offset="0" stop-color="#fffbe6"></stop><stop offset="1" stop-color="#c0d5e7"></stop></linearGradient><linearGradient gradientTransform="matrix(71.16 2.28 2.28 85.2 270953.28 24844.99)" gradientUnits="userSpaceOnUse" id="未命名的渐变_135-2" node-id="41" spreadMethod="pad" x1="-3798.28" x2="-3798.28" y1="-186.52" y2="-187.77"><stop offset="0" stop-color="#a634c9"></stop><stop offset="1" stop-color="#f35f83"></stop></linearGradient><linearGradient gradientTransform="matrix(77.73 0.34 0.34 79.84 295374.23 16579.52)" gradientUnits="userSpaceOnUse" id="未命名的渐变_131-4" node-id="42" spreadMethod="pad" x1="-3796.59" x2="-3796.91" y1="-188.41" y2="-189.17"><stop offset="0" stop-color="#fb8460"></stop><stop offset="1" stop-color="#fed0ba"></stop></linearGradient><linearGradient gradientTransform="matrix(32.58 3.07 3.07 51.46 126965.76 22126.65)" gradientUnits="userSpaceOnUse" id="未命名的渐变_133-3" node-id="43" spreadMethod="pad" x1="-3874.36" x2="-3874.22" y1="-196.78" y2="-196.65"><stop offset="0" stop-color="#9cbaf4"></stop><stop offset="1" stop-color="#456de3"></stop></linearGradient><linearGradient gradientTransform="matrix(35.67 23.23 -26.55 51.74 133813.19 99312.69)" gradientUnits="userSpaceOnUse" id="未命名的渐变_133-4" node-id="44" spreadMethod="pad" x1="-3878.1" x2="-3877.06" y1="-177.02" y2="-177.02"><stop offset="0" stop-color="#9cbaf4"></stop><stop offset="1" stop-color="#456de3"></stop></linearGradient><linearGradient gradientTransform="matrix(24.75 -7.78 7.02 23.66 97703.23 -24189.69)" gradientUnits="userSpaceOnUse" id="未命名的渐变_134" node-id="45" spreadMethod="pad" x1="-3869.69" x2="-3870.6" y1="-248.27" y2="-247.24"><stop offset="0" stop-color="#b7e0fe"></stop><stop offset="1" stop-color="#d0f1ff"></stop></linearGradient><linearGradient gradientTransform="matrix(36.77 -1.61 -1.61 26.86 140371.37 202.44)" gradientUnits="userSpaceOnUse" id="未命名的渐变_135-3" node-id="48" spreadMethod="pad" x1="-3822.26" x2="-3822.26" y1="-228.45" y2="-229.69"><stop offset="0" stop-color="#a634c9"></stop><stop offset="1" stop-color="#f35f83"></stop></linearGradient></defs><g node-id="229"><g node-id="230"><path d="M 0.00 0.00 L 500.00 0.00 L 500.00 500.00 L 0.00 500.00 Z" fill="none" group-id="1,2" id="Rectangle" node-id="52" stroke="none" target-height="500" target-width="500" target-x="0" target-y="0"></path><g node-id="231"><path d="M 131.66 316.30 L 154.66 301.90 L 462.36 277.90 C 467.11 277.51 471.82 279.03 475.45 282.13 C 479.07 285.23 481.31 289.64 481.66 294.40 C 481.66 294.90 481.76 295.30 481.76 295.80 L 481.76 298.30 C 481.73 308.23 473.69 316.27 463.76 316.30 Z" fill="url(#未命名的渐变_115)" fill-rule="nonzero" group-id="1,2,3" id="Path-782" node-id="54" stroke="none" target-height="38.789978" target-width="350.1" target-x="131.66" target-y="277.51"></path><path d="M 31.56 304.60 L 107.26 303.80 L 107.26 303.80 L 134.00 316.10 L 31.46 328.00 C 28.55 328.34 25.63 327.50 23.35 325.68 C 21.06 323.86 19.59 321.21 19.26 318.30 C 19.26 317.90 19.16 317.40 19.16 317.00 C 19.23 310.18 24.74 304.67 31.56 304.60 Z" fill="url(#未命名的渐变_115-2)" fill-rule="nonzero" group-id="1,2,3" id="Path-781" node-id="55" stroke="none" target-height="24.540009" target-width="114.84" target-x="19.16" target-y="303.8"></path><path d="M 146.00 381.10 L 481.70 423.70 L 481.80 457.20 L 481.80 457.20 L 481.80 457.30 C 481.79 472.15 469.75 484.19 454.90 484.20 L 54.06 484.20 C 34.26 484.20 18.17 468.20 18.06 448.40 L 18.06 448.40 L 17.86 421.60 Z M 203.90 362.80 L 454.70 389.10 L 455.20 389.20 C 469.62 390.92 480.73 402.71 481.60 417.20 L 159.70 376.80 Z M 89.36 368.00 L 73.66 372.00 L 131.96 379.40 L 17.86 415.00 L 17.86 414.00 C 17.74 397.51 28.88 383.07 44.86 379.00 L 45.36 378.90 Z M 128.36 358.50 C 135.16 356.84 142.20 356.37 149.16 357.10 L 149.16 357.10 L 189.56 361.30 L 145.66 375.00 L 89.46 368.00 Z" fill="url(#未命名的渐变_116)" fill-rule="nonzero" group-id="1,2,3" id="Combined-Shape" node-id="56" stroke="none" target-height="127.83002" target-width="464.06" target-x="17.74" target-y="356.37"></path><path d="M 238.96 454.50 C 238.96 461.96 211.87 468.00 178.46 468.00 C 145.05 468.00 117.96 461.96 117.96 454.50 C 117.96 447.04 145.05 441.00 178.46 441.00 C 211.87 441.00 238.96 447.04 238.96 454.50 Z" fill="#000000" fill-opacity="0.09" fill-rule="nonzero" group-id="1,2,3" id="Oval" node-id="57" stroke="none" target-height="27" target-width="121.00001" target-x="117.96" target-y="441"></path><g node-id="232"><path d="M 219.59 184.48 C 219.59 184.48 222.77 177.09 220.90 172.32 C 219.03 167.55 214.18 163.77 211.18 158.88 C 208.18 153.99 209.73 143.31 216.47 141.13 C 223.21 138.95 227.24 140.74 231.21 145.98 C 235.18 151.22 236.35 163.09 234.41 164.92 C 232.76 166.24 230.60 166.73 228.55 166.25 C 229.81 170.77 232.27 174.86 235.68 178.08 C 242.90 184.63 221.29 188.86 219.59 184.48 Z" fill="url(#未命名的渐变_117)" fill-rule="nonzero" group-id="1,2,3,4" id="Path" node-id="59" stroke="none" target-height="49.910004" target-width="34.72" target-x="208.18" target-y="138.95"></path><path d="M 234.64 177.23 L 230.28 185.52 C 229.28 185.77 228.42 185.91 227.43 186.07 L 220.80 180.64 C 220.91 180.04 221.06 179.44 221.23 178.85 L 233.76 176.16 C 234.03 176.53 234.33 176.89 234.64 177.23 Z" fill="#372732" fill-opacity="0.3" fill-rule="nonzero" group-id="1,2,3,4" id="Combined-Shape-2" node-id="60" stroke="none" target-height="9.910004" target-width="13.839996" target-x="220.8" target-y="176.16"></path><path d="M 219.44 169.51 C 219.39 168.09 219.43 166.66 219.58 165.24 C 219.86 163.89 220.26 162.58 220.78 161.30 C 220.78 161.30 217.01 159.88 216.51 158.03 C 216.01 156.18 217.71 154.10 219.59 155.72 C 221.47 157.34 222.40 158.11 221.40 155.64 C 220.40 153.17 217.55 149.87 219.01 147.64 C 220.47 145.41 224.23 142.87 226.61 143.20 C 228.99 143.53 229.61 140.90 229.61 139.08 C 229.61 137.26 225.61 129.69 222.85 131.54 C 220.09 133.39 220.74 136.13 217.33 136.97 C 213.92 137.81 212.79 137.09 211.00 139.80 C 209.21 142.51 209.00 146.10 207.56 148.14 C 206.31 149.88 205.72 152.00 205.88 154.14 C 206.63 158.28 219.44 169.51 219.44 169.51 Z" fill="url(#未命名的渐变_118)" fill-rule="nonzero" group-id="1,2,3,4" id="Path-2" node-id="61" stroke="none" target-height="39.819992" target-width="23.89" target-x="205.72" target-y="129.69"></path><g node-id="233"><g node-id="235"><path d="M 128.26 355.89 C 130.05 357.60 130.69 360.19 129.90 362.54 C 129.16 364.37 126.28 370.77 125.90 374.19 C 125.52 377.61 127.41 382.94 122.77 382.00 C 118.13 381.06 116.31 374.62 116.70 371.40 C 117.09 368.18 118.05 361.25 119.05 358.51 C 120.05 355.77 126.62 354.55 128.26 355.89 Z" fill="url(#未命名的渐变_122)" fill-rule="nonzero" group-id="1,2,3,4,5,7" id="Path-3" node-id="64" stroke="none" target-height="28.390015" target-width="14.380005" target-x="116.31" target-y="354.55"></path><path d="M 240.63 287.13 C 240.63 287.13 215.90 332.32 209.41 335.75 C 207.41 336.82 198.74 339.75 187.86 343.30 C 163.33 351.37 127.00 362.64 127.00 362.64 C 127.00 362.64 124.60 359.92 126.34 358.06 C 128.08 356.20 166.06 332.06 179.21 327.70 C 192.36 323.34 201.21 324.93 201.21 324.93 L 213.37 289.28 Z" fill="url(#未命名的渐变_131)" fill-rule="nonzero" group-id="1,2,3,4,5,7" id="Path-4" node-id="65" stroke="none" target-height="75.51001" target-width="116.03001" target-x="124.6" target-y="287.13"></path><path d="M 207.59 306.49 L 226.59 311.73 C 224.89 314.49 223.19 317.36 221.48 320.02 C 221.38 319.92 221.17 319.83 221.07 319.73 C 217.07 317.07 212.62 312.62 207.60 306.49 Z" fill="#372732" fill-opacity="0.14" fill-rule="nonzero" group-id="1,2,3,4,5,7" id="Combined-Shape-3" node-id="66" stroke="none" target-height="13.529999" target-width="19" target-x="207.59" target-y="306.49"></path><path d="M 134.00 357.19 C 134.09 358.13 134.26 359.07 134.50 359.98 C 129.86 361.64 126.89 362.74 126.89 362.74 C 126.89 362.74 124.50 360.03 126.23 358.16 C 128.73 356.17 131.34 354.31 134.04 352.59 C 133.89 354.12 133.88 355.66 134.00 357.19 Z" fill="#f3f3f3" fill-rule="nonzero" group-id="1,2,3,4,5,7" id="Combined-Shape-4" node-id="67" stroke="none" target-height="10.149994" target-width="10" target-x="124.5" target-y="352.59"></path><path d="M 226.78 245.69 C 226.78 245.69 219.64 253.34 215.78 268.08 C 211.92 282.82 207.21 306.31 207.21 306.31 C 209.97 308.82 212.98 311.03 216.21 312.90 C 222.44 316.68 231.41 315.57 231.41 315.57 C 231.41 315.57 240.63 292.93 259.06 247.76 C 237.61 246.31 226.78 245.69 226.78 245.69 Z" fill="url(#未命名的渐变_129)" fill-rule="nonzero" group-id="1,2,3,4,5,7" id="Path-5" node-id="68" stroke="none" target-height="70.98999" target-width="51.84999" target-x="207.21" target-y="245.69"></path></g></g><path d="M 203.22 397.56 C 204.36 396.47 208.78 398.80 209.17 401.27 C 209.56 403.74 212.30 416.57 212.82 418.52 C 213.34 420.47 213.15 423.83 208.75 422.91 C 204.35 421.99 204.06 420.11 203.36 418.29 C 202.66 416.47 203.55 415.02 201.66 413.29 C 199.77 411.56 197.50 405.54 198.17 403.41 C 198.84 401.28 200.77 400.00 203.22 397.56 Z" fill="url(#未命名的渐变_122-2)" fill-rule="nonzero" group-id="1,2,3,4" id="Path-6" node-id="69" stroke="none" target-height="27.359985" target-width="15.839996" target-x="197.5" target-y="396.47"></path><path d="M 242.88 303.40 C 242.88 303.40 244.39 331.51 243.22 335.64 C 242.05 339.77 235.28 340.44 229.57 350.46 C 223.86 360.48 204.44 399.46 204.44 399.46 C 204.44 399.46 204.36 404.74 207.89 401.46 C 211.42 398.18 246.44 353.34 250.78 350.72 C 255.12 348.10 257.69 343.86 259.34 337.02 C 260.99 330.18 267.00 291.79 267.00 291.79 Z" fill="url(#未命名的渐变_131-2)" fill-rule="nonzero" group-id="1,2,3,4" id="Path-7" node-id="70" stroke="none" target-height="112.94998" target-width="62.64" target-x="204.36" target-y="291.79"></path><path d="M 263.12 304.65 L 264.07 309.35 C 263.53 312.98 262.81 316.74 262.27 320.35 C 261.05 320.44 259.82 320.40 258.61 320.22 C 255.21 319.85 250.13 317.82 243.38 314.22 L 243.48 314.22 L 243.48 314.12 Z" fill="#372732" fill-opacity="0.14" fill-rule="nonzero" group-id="1,2,3,4" id="Combined-Shape-5" node-id="71" stroke="none" target-height="15.790009" target-width="20.690002" target-x="243.38" target-y="304.65"></path><path d="M 210.81 393.72 C 211.39 394.44 212.06 395.08 212.81 395.63 C 211.25 397.64 209.58 399.56 207.81 401.38 C 204.38 404.66 204.36 399.38 204.36 399.38 C 204.36 399.38 206.12 395.77 208.82 390.48 C 209.32 391.65 209.99 392.74 210.81 393.72 Z" fill="#f3f3f3" fill-rule="nonzero" group-id="1,2,3,4" id="Combined-Shape-6" node-id="72" stroke="none" target-height="14.179993" target-width="8.449997" target-x="204.36" target-y="390.48"></path><path d="M 243.00 172.00 C 243.00 172.00 273.57 160.47 277.80 155.25 C 279.25 153.50 285.55 143.39 291.21 137.63 C 302.30 126.46 315.57 116.87 317.21 114.07 C 319.77 109.81 327.67 100.87 329.48 98.86 C 331.29 96.85 334.68 97.86 337.54 96.07 C 340.40 94.28 343.83 91.63 344.23 92.27 C 344.63 92.91 343.07 95.80 340.67 97.27 C 338.27 98.74 334.42 99.98 333.13 101.40 C 331.84 102.82 330.39 105.88 330.84 106.12 C 332.31 106.62 333.85 106.85 335.40 106.81 C 337.11 106.74 339.80 105.81 340.40 106.52 C 341.00 107.23 339.74 108.76 337.40 109.62 C 335.06 110.48 329.27 110.71 327.73 111.26 C 326.19 111.81 322.84 114.87 320.73 117.94 C 318.62 121.01 300.12 151.48 297.08 155.94 C 294.04 160.40 283.98 163.99 282.08 164.79 C 280.18 165.59 248.82 188.79 248.82 188.79 C 241.00 193.44 228.86 179.77 243.00 172.00 Z" fill="url(#未命名的渐变_131-3)" fill-rule="nonzero" group-id="1,2,3,4" id="Path-8" node-id="73" stroke="none" target-height="101.810005" target-width="115.770004" target-x="228.86" target-y="91.63"></path><path d="M 336.22 43.80 C 336.41 43.62 336.68 43.54 336.94 43.57 C 337.20 43.61 337.43 43.76 337.56 43.99 L 337.56 43.99 L 339.24 46.26 L 333.24 52.57 L 340.00 47.25 L 345.43 54.69 C 345.43 54.72 345.45 54.74 345.47 54.76 C 345.50 54.77 345.52 54.78 345.55 54.77 L 345.55 54.87 C 345.65 55.12 345.64 55.41 345.53 55.65 C 345.42 55.90 345.21 56.09 344.95 56.18 L 344.95 56.18 L 327.34 63.18 C 326.11 63.69 324.70 63.27 323.94 62.18 C 323.15 61.15 323.17 59.72 324.00 58.72 L 324.00 58.72 L 336.00 43.86 C 336.08 43.86 336.15 43.84 336.22 43.80 Z" fill="url(#未命名的渐变_125)" fill-rule="nonzero" group-id="1,2,3,4" id="Combined-Shape-7" node-id="74" stroke="none" target-height="20.149998" target-width="22.5" target-x="323.15" target-y="43.54"></path><path d="M 326.48 55.87 L 330.78 61.87 L 330.30 62.05 L 326.14 56.23 Z" fill="url(#未命名的渐变_133)" fill-rule="nonzero" group-id="1,2,3,4" id="Combined-Shape-8" node-id="75" stroke="none" target-height="6.1800003" target-width="4.639984" target-x="326.14" target-y="55.87"></path><path d="M 325.80 56.69 L 329.74 62.34 L 327.36 63.34 C 326.22 63.80 324.91 63.48 324.10 62.55 L 323.97 62.36 C 323.17 61.34 323.19 59.90 324.03 58.91 L 324.03 58.91 Z" fill="url(#未命名的渐变_133-2)" fill-rule="nonzero" group-id="1,2,3,4" id="Combined-Shape-9" node-id="76" stroke="none" target-height="7.1100006" target-width="6.569977" target-x="323.17" target-y="56.69"></path><path d="M 264.62 163.27 C 266.55 164.06 268.18 165.43 269.29 167.19 C 270.30 168.79 271.14 170.48 271.82 172.25 C 269.82 173.59 267.82 174.92 265.87 176.25 L 265.46 176.25 Z" fill="#372732" fill-opacity="0.3" fill-rule="nonzero" group-id="1,2,3,4" id="Combined-Shape-10" node-id="77" stroke="none" target-height="12.979996" target-width="7.200012" target-x="264.62" target-y="163.27"></path><path d="M 332.91 98.39 C 335.12 97.63 336.11 99.39 338.28 101.59 C 340.45 103.79 341.55 105.59 340.14 105.65 C 338.73 105.71 337.71 103.65 336.20 102.52 C 334.69 101.39 333.36 99.94 331.56 100.73 C 329.76 101.52 330.71 99.14 332.91 98.39 Z" fill="#f8cda5" fill-rule="nonzero" group-id="1,2,3,4" id="Path-9" node-id="78" stroke="none" target-height="8.080002" target-width="11.789978" target-x="329.76" target-y="97.63"></path><path d="M 243.06 170.33 C 243.06 170.33 260.78 162.66 262.69 162.56 C 264.60 162.46 267.42 165.56 268.30 168.56 C 269.18 171.56 267.93 177.12 267.93 177.12 L 252.00 190.28 C 252.00 190.28 243.32 195.00 237.72 189.00 C 232.12 183.00 233.72 180.12 235.18 176.84 C 236.66 173.57 239.57 171.16 243.06 170.33 Z" fill="url(#未命名的渐变_135)" fill-rule="nonzero" group-id="1,2,3,4" id="Path-10" node-id="79" stroke="none" target-height="32.539993" target-width="37.059998" target-x="232.12" target-y="162.46"></path><path d="M 267.92 177.00 L 257.36 185.76 L 255.14 180.76 L 268.35 174.00 C 268.28 175.01 268.13 176.01 267.92 177.00 Z" fill="#372732" fill-opacity="0.3" fill-rule="nonzero" group-id="1,2,3,4" id="Combined-Shape-11" node-id="80" stroke="none" target-height="11.7599945" target-width="13.210007" target-x="255.14" target-y="174"></path><path d="M 234.00 253.58 L 242.00 314.47 C 242.00 314.47 261.29 317.39 267.00 312.63 C 268.52 311.38 269.82 301.05 269.81 288.80 C 269.81 267.74 267.93 240.50 267.93 240.50 Z" fill="url(#未命名的渐变_129-2)" fill-rule="nonzero" group-id="1,2,3,4" id="Path-11" node-id="81" stroke="none" target-height="76.890015" target-width="35.820007" target-x="234" target-y="240.5"></path><path d="M 247.63 280.37 L 252.76 315.30 C 249.19 315.22 245.63 314.94 242.10 314.45 L 242.10 314.45 L 239.26 292.73 Z" fill="#372732" fill-opacity="0.14" fill-rule="nonzero" group-id="1,2,3,4" id="Combined-Shape-12" node-id="82" stroke="none" target-height="34.929993" target-width="13.5" target-x="239.26" target-y="280.37"></path><path d="M 221.16 254.49 C 235.16 259.26 246.00 261.09 253.60 259.88 C 261.20 258.67 266.33 257.16 269.08 255.31 L 268.08 240.49 L 221.71 252.69 Z" fill="#372732" fill-opacity="0.14" fill-rule="nonzero" group-id="1,2,3,4" id="Path-135" node-id="83" stroke="none" target-height="20.59999" target-width="47.919983" target-x="221.16" target-y="240.49"></path><path d="M 199.45 187.77 C 199.45 187.77 218.27 178.10 221.45 179.12 C 225.39 180.31 232.97 180.23 233.76 175.65 C 234.12 173.46 245.62 169.31 245.62 169.31 C 245.62 169.31 253.87 170.94 258.09 183.54 C 262.31 196.14 276.00 235.78 276.00 235.78 C 270.15 246.35 259.77 253.63 247.84 255.53 C 227.43 258.97 219.63 253.21 219.63 253.21 C 219.63 253.21 222.54 236.45 219.33 228.96 C 217.69 224.96 201.94 204.18 199.07 198.86 C 196.00 193.57 199.45 187.77 199.45 187.77 Z" fill="url(#未命名的渐变_135-2)" fill-rule="nonzero" group-id="1,2,3,4" id="Path-12" node-id="84" stroke="none" target-height="89.66" target-width="80" target-x="196" target-y="169.31"></path><path d="M 217.31 202.05 L 218.31 227.19 C 215.85 223.13 209.74 214.58 204.91 207.75 Z" fill="#372732" fill-opacity="0.3" fill-rule="nonzero" group-id="1,2,3,4" id="Combined-Shape-13" node-id="85" stroke="none" target-height="25.14" target-width="13.399994" target-x="204.91" target-y="202.05"></path><path d="M 245.62 169.22 L 245.62 169.22 C 245.72 169.22 245.83 169.28 246.15 169.33 C 247.94 179.33 250.99 204.41 240.92 224.53 C 236.15 234.10 226.22 246.81 220.64 253.76 C 220.25 253.58 219.88 253.37 219.53 253.13 C 220.33 248.21 220.73 243.24 220.71 238.26 C 225.16 232.92 229.17 227.24 232.71 221.26 C 241.62 206.58 240.91 182.26 240.09 171.39 C 242.93 170.15 245.62 169.22 245.62 169.22 Z" fill="#f3f3f3" fill-rule="nonzero" group-id="1,2,3,4" id="Combined-Shape-14" node-id="86" stroke="none" target-height="84.53999" target-width="31.460007" target-x="219.53" target-y="169.22"></path><path d="M 130.81 160.27 C 131.72 162.85 133.81 162.53 136.40 165.56 C 138.99 168.59 149.00 192.42 152.91 202.00 C 156.82 211.58 161.91 223.25 170.77 220.13 C 179.63 217.01 209.47 205.60 209.47 205.60 C 219.33 200.09 214.81 181.77 202.66 187.54 L 170.25 206.65 C 168.65 201.60 166.39 196.78 163.53 192.32 C 159.08 185.32 144.48 170.53 143.25 166.58 C 142.02 162.63 143.49 157.83 143.54 154.99 C 143.59 152.15 147.06 146.53 145.39 145.58 C 143.72 144.63 140.52 150.58 140.05 151.49 C 139.58 152.40 137.37 149.89 137.37 149.89 C 137.37 149.89 138.91 146.21 138.37 144.89 C 137.83 143.57 135.57 147.66 134.31 149.28 C 133.05 150.90 132.93 150.81 132.98 151.11 C 133.03 151.41 129.89 157.68 130.81 160.27 Z" fill="url(#未命名的渐变_131-4)" fill-rule="nonzero" group-id="1,2,3,4" id="Path-13" node-id="87" stroke="none" target-height="79.67999" target-width="89.44" target-x="129.89" target-y="143.57"></path><path d="M 182.60 199.65 L 189.12 200.54 L 196.54 207.06 L 192.00 212.33 C 191.24 212.66 190.46 212.88 189.60 213.22 C 189.43 210.66 188.79 208.15 187.72 205.82 C 186.35 203.50 184.62 201.42 182.59 199.65 Z" fill="#372732" fill-opacity="0.3" fill-rule="nonzero" group-id="1,2,3,4" id="Combined-Shape-15" node-id="88" stroke="none" target-height="13.570007" target-width="13.949997" target-x="182.59" target-y="199.65"></path><path d="M 142.93 144.85 L 164.44 91.43 C 164.58 91.13 164.59 90.78 164.47 90.47 C 164.34 90.16 164.08 89.92 163.77 89.81 C 163.14 89.55 162.43 89.85 162.16 90.47 L 140.65 143.89 C 140.37 144.52 140.66 145.25 141.29 145.53 C 141.92 145.81 142.65 145.52 142.93 144.89 Z" fill="url(#未命名的渐变_133-3)" fill-rule="nonzero" group-id="1,2,3,4,6" id="Path-14" node-id="90" stroke="none" target-height="56.259995" target-width="24.220001" target-x="140.37" target-y="89.55"></path><path d="M 132.48 162.00 C 132.34 162.92 132.81 163.83 133.65 164.24 C 134.54 164.54 135.51 164.22 136.05 163.45 L 144.55 141.05 L 141.93 139.84 Z" fill="#273869" fill-rule="nonzero" group-id="1,2,3,4,6" id="Path-15" node-id="91" stroke="none" target-height="24.699997" target-width="12.210007" target-x="132.34" target-y="139.84"></path><path d="M 163.68 91.75 C 174.68 95.88 188.01 86.88 193.68 71.75 C 199.35 56.62 195.30 41.12 184.32 36.99 C 173.34 32.86 160.00 41.91 154.32 57.00 C 148.64 72.09 152.69 87.62 163.68 91.75 Z M 164.53 89.49 C 155.06 85.93 151.41 71.82 156.60 57.94 C 161.79 44.06 174.00 35.85 183.43 39.42 C 192.86 42.99 196.56 57.08 191.37 71.00 C 186.18 84.92 174.00 93.05 164.53 89.49 Z" fill="url(#未命名的渐变_133-4)" fill-rule="nonzero" group-id="1,2,3,4,6" id="Oval-2" node-id="92" stroke="none" target-height="63.019997" target-width="50.710007" target-x="148.64" target-y="32.86"></path><path d="M 161.91 62.06 L 180.45 46.77 L 183.99 70.41 L 167.93 80.24 L 161.91 62.06 Z" fill="url(#未命名的渐变_134)" fill-rule="nonzero" group-id="1,2,3,4,6" id="Rectangle-2" node-id="93" stroke="none" target-height="33.469997" target-width="22.080002" target-x="161.91" target-y="46.77"></path><path d="M 181.85 199.36 C 184.90 200.33 187.42 202.50 188.85 205.36 C 190.27 208.15 191.00 211.23 190.98 214.36 L 210.38 208.36 C 210.38 208.36 222.00 203.00 217.66 190.86 C 216.17 186.54 209.66 184.86 209.66 184.86 C 209.66 184.86 205.72 183.66 197.10 189.28 C 188.48 194.90 181.85 199.36 181.85 199.36 Z" fill="url(#未命名的渐变_135-3)" fill-rule="nonzero" group-id="1,2,3,4" id="Path-16" node-id="94" stroke="none" target-height="30.699997" target-width="40.149994" target-x="181.85" target-y="183.66"></path></g></g></g></g></svg>